<svg xmlns="http://www.w3.org/2000/svg" width="350" height="45" viewBox="0 0 350 45" fill="none"><path fill-rule="evenodd" clip-rule="evenodd" d="M68.5569 0.290436C65.425 0.290436 62.4253 0.812952 59.564 1.86086C56.737 2.87165 54.2425 4.35149 52.0904 6.30159C49.9675 8.22156 48.2825 10.5834 47.0304 13.371C45.7632 16.1532 45.141 19.2801 45.141 22.7324C45.141 25.992 45.7248 29.0131 46.9053 31.7828C48.0612 34.4281 49.7564 36.8527 51.8362 38.8522C53.9159 40.831 56.4079 42.3607 59.0706 43.4186C61.8415 44.4995 64.8336 45 67.802 45C70.9019 45 73.8339 44.4558 76.5894 43.3613C79.3788 42.2688 81.8151 40.7066 83.888 38.674C85.9961 36.6448 87.6563 34.2517 88.868 31.5036C90.0898 28.7327 90.6953 25.7273 90.6953 22.5C90.6953 19.5922 90.1902 16.7991 89.1786 14.1268C88.1662 11.4525 86.7047 9.0937 84.7943 7.05922C82.8762 4.97768 80.5364 3.33258 77.7899 2.11979C75.0493 0.892472 71.9653 0.290436 68.5569 0.290436ZM78.0402 35.9784C76.9116 37.7988 75.499 39.2821 73.8003 40.4392C72.1074 41.6176 70.0809 42.1249 68.0343 42.1249C65.7566 42.1249 63.7929 41.6027 62.1104 40.5867C60.4226 39.5439 58.9992 38.1587 57.8382 36.4181C56.7065 34.663 55.8379 32.6182 55.2423 30.2716C54.6443 27.9155 54.344 25.4614 54.344 22.9067C54.344 20.4634 54.6067 18.0591 55.1319 15.6924C55.6912 13.3068 56.5246 11.2018 57.6236 9.36747C58.7501 7.55113 60.1584 6.09164 61.8495 4.97555C63.6292 3.7895 65.7372 3.28176 67.8601 3.28176C70.1629 3.28176 72.1093 3.85489 73.7423 4.96736C75.4634 6.1389 76.8974 7.64268 77.9796 9.4241C79.1628 11.3719 80.0545 13.4268 80.5913 15.6469C81.141 17.9201 81.4923 20.2141 81.4923 22.5581C81.4923 24.9126 81.1936 27.2702 80.594 29.6325C80.0269 31.8613 79.2378 34.0058 78.0402 35.9784Z" fill="#092278"></path><path d="M40.1464 16.421L42.5927 16.217V1.27827H40.4169L40.1197 1.72437C39.9067 2.04409 39.6753 2.36533 39.4253 2.68804C39.1743 2.97416 38.9248 3.24106 38.6769 3.4891C38.5305 3.63559 38.3854 3.77239 38.2416 3.89977C38.12 3.81998 37.9744 3.7219 37.8035 3.60437C37.1071 3.12528 36.1496 2.6306 34.9632 2.11621C33.7336 1.58305 32.224 1.10225 30.4477 0.667789C28.6089 0.218035 26.4934 0 24.1127 0C21.4883 0 19.0969 0.278373 16.9468 0.846669C14.825 1.40747 12.906 2.17276 11.1971 3.14884C9.49871 4.08034 8.01015 5.18039 6.73892 6.45238C5.48951 7.70252 4.43337 9.02139 3.57604 10.4101C2.85321 11.5754 2.24705 12.7469 1.76008 13.9244L1.75663 13.9328L1.75334 13.9412C1.31546 15.0564 0.954881 16.1377 0.673186 17.1846L0.668475 17.2021L0.6644 17.2198C0.425892 18.2539 0.245445 19.2351 0.124548 20.1625L0.121766 20.1839L0.119902 20.2053C0.0406289 21.1175 0 21.9414 0 22.6744C0 25.9295 0.56277 28.9464 1.70133 31.7132L1.70336 31.718C2.84055 34.4408 4.46907 36.8048 6.58604 38.8008L6.59324 38.8076L6.60058 38.8143C8.75976 40.7709 11.354 42.2871 14.3664 43.3721L14.3776 43.376C17.4028 44.4254 20.7679 44.942 24.4611 44.942C26.6802 44.942 28.6675 44.7638 30.4151 44.3978L30.4259 44.3955L30.4368 44.393C32.1343 43.998 33.5988 43.5582 34.8209 43.0691L34.8341 43.0638L34.8471 43.0582C36.0263 42.5469 36.9693 42.0783 37.6508 41.6521L37.6694 41.6405L37.6874 41.6281C37.8672 41.5045 38.019 41.4023 38.1443 41.3204C38.2362 41.4068 38.3467 41.5181 38.477 41.6586C38.9474 42.1654 39.4034 42.7306 39.8445 43.3558L40.1436 43.7799H42.3469L42.5484 28.9936H40.0233L39.8567 29.7902C39.5337 31.334 38.9214 32.8548 38.0074 34.3545C37.1301 35.8176 36.0166 37.1292 34.7248 38.2422C33.4161 39.402 31.9063 40.3136 30.2923 40.9806L30.2851 40.9837C28.6741 41.6643 26.9299 42.0088 25.0418 42.0088C22.6275 42.0088 20.4601 41.5157 18.5213 40.5457C16.5557 39.5623 14.8868 38.2372 13.5064 36.5662C12.1207 34.8502 11.0352 32.8319 10.2572 30.4988C9.5181 28.1668 9.14489 25.6575 9.14489 22.9649C9.14489 20.4272 9.49876 17.9684 10.2054 15.5851C10.9505 13.1636 11.9883 11.0174 13.3131 9.13821C14.6628 7.27825 16.3171 5.78799 18.2816 4.65954C20.2045 3.55505 22.41 2.99132 24.9257 2.99132C26.7381 2.99132 28.4282 3.31716 30.0051 3.96263C31.6016 4.60172 33.0746 5.51967 34.3764 6.64159C35.6896 7.77306 36.8238 9.10786 37.7787 10.6513C38.7339 12.1952 39.4502 13.8488 39.9283 15.6152L40.1464 16.421Z" fill="#092278"></path><path fill-rule="evenodd" clip-rule="evenodd" d="M333.477 31.5791L333.864 30.914L336.202 31.5521L332.851 44.3569H295.539V41.9195L296.382 41.7853C297.277 41.642 298.087 41.4106 298.817 41.0981L299.211 42.0187L299.201 41.9942L298.817 41.0981L298.824 41.0951L298.832 41.0911C299.548 40.7982 300.106 40.4057 300.532 39.9251C300.601 39.8435 300.702 39.6676 300.795 39.3351C300.901 38.9143 300.991 38.4283 301.064 37.8773L301.069 37.8453L301.075 37.8132C301.182 37.2783 301.253 36.7233 301.289 36.1463C301.327 35.5072 301.346 34.8891 301.346 34.291V32.041C301.384 31.1273 301.404 30.1346 301.404 29.0617V29.0276C301.442 27.9156 301.462 26.7846 301.462 25.6336V10.9334C301.462 10.2552 301.443 9.55595 301.405 8.83667L301.404 8.80962V8.78358C301.404 8.08233 301.367 7.42416 301.294 6.80906L301.291 6.78001L301.289 6.75096C301.254 6.15289 301.168 5.65401 301.042 5.24328L301.954 4.96238C301.954 4.96234 301.954 4.96243 301.954 4.96238L301.042 5.24328L301.02 5.15812L301.953 4.95838C301.953 4.95826 301.953 4.9585 301.953 4.95838L301.02 5.15812C300.967 4.91312 300.92 4.66251 300.745 4.4719L301.317 3.93596C301.317 3.9359 301.317 3.93603 301.317 3.93596L300.745 4.4719C300.344 4.04401 299.896 3.75167 299.335 3.58532L299.525 2.93885C299.525 2.93882 299.525 2.93888 299.525 2.93885L299.335 3.58532C298.738 3.41001 297.937 3.24372 296.916 3.09245L296.062 2.96622V0.518867H329.787L333.991 10.726L333.513 12.0033L332.933 12.2938L332.21 12.6565L331.703 12.0253L332.338 11.5165C332.338 11.5164 332.338 11.5166 332.338 11.5165L331.703 12.0253C328.609 8.16362 325.777 5.6585 323.217 4.39589C322.711 4.16136 321.638 3.90664 319.87 3.67649C318.146 3.45109 316.025 3.33588 313.497 3.33588C312.715 3.33588 311.892 3.37295 311.028 3.44808L311.008 3.45008L310.987 3.45109L310.957 2.80415C310.957 2.80415 310.958 2.80414 310.957 2.80415L310.987 3.45109C310.6 3.46849 310.275 3.48965 310.006 3.51344C309.955 4.19336 309.903 5.18408 309.851 6.49951C309.813 8.42342 309.794 10.6567 309.794 13.1994V19.3864C309.821 19.8181 309.839 20.1924 309.847 20.5064H310.012C310.571 20.5064 311.211 20.4874 311.934 20.4493L311.986 21.4426C311.986 21.4426 311.986 21.4426 311.986 21.4426L311.934 20.4493H311.937C312.704 20.4115 313.453 20.3727 314.183 20.3339C314.917 20.2596 315.499 20.1698 315.94 20.0683C317.031 19.8139 317.894 19.4776 318.556 19.0809C319.225 18.6782 319.736 18.2083 320.111 17.6764L320.133 17.6453C320.562 17.0863 320.897 16.4352 321.137 15.6849L321.145 15.6588C321.439 14.8133 321.699 13.8666 321.925 12.8147L322.094 12.0233H324.602V32.3295H322.122L321.932 31.5711L322.856 31.3397C322.856 31.3396 322.856 31.3397 322.856 31.3397L321.932 31.5711C321.642 30.4121 321.187 29.2019 320.556 27.9407L320.546 27.9196L321.347 27.5422C321.347 27.5422 321.347 27.5423 321.347 27.5422L320.546 27.9196C319.962 26.6783 319.376 25.8184 318.81 25.2772C318.292 24.8253 317.644 24.4379 316.848 24.1259L316.833 24.1209L317.095 23.4828C317.094 23.4827 317.095 23.4828 317.095 23.4828L316.833 24.1209C316.104 23.8213 315.208 23.626 314.126 23.5539C313.558 23.5158 313.098 23.4978 312.742 23.4978H312.692L312.641 23.4928L312.707 22.8413C312.707 22.8413 312.707 22.8413 312.707 22.8413L312.641 23.4928C312.287 23.4577 311.934 23.4397 311.58 23.4397H309.824C309.804 23.822 309.794 24.2807 309.794 24.8201V33.5646C309.832 34.1043 309.852 34.58 309.852 34.9882C309.89 36.1947 309.947 37.3432 310.021 38.4354C310.131 39.4533 310.34 40.0824 310.564 40.4309C310.601 40.489 310.715 40.6152 311.03 40.7615C311.34 40.9057 311.784 41.041 312.392 41.1482C313.643 41.3696 315.016 41.4818 316.515 41.4818C317.156 41.4818 317.975 41.4627 318.974 41.4247H318.976C319.985 41.3866 321.035 41.2934 322.128 41.1422L322.14 41.1412C323.292 40.9971 324.339 40.7298 325.29 40.3451C326.239 39.9225 327.165 39.3364 328.066 38.5786C328.97 37.8192 329.85 36.8866 330.703 35.7736L330.706 35.7696C331.602 34.6115 332.526 33.2171 333.477 31.5791Z" fill="#092278"></path><path d="M320.133 17.6453L320.111 17.6764L320.122 17.6614L320.133 17.6453Z" fill="#092278"></path><path d="M333.513 12.0033L333.991 10.726L334.345 11.5876L333.513 12.0033Z" fill="#092278"></path><path fill-rule="evenodd" clip-rule="evenodd" d="M289.528 4.05096C290.263 3.60824 291.274 3.27439 292.609 3.09445L293.477 2.97724V0.518867H277.073V2.96823L277.929 3.09245C279.711 3.35291 280.945 3.80271 281.728 4.36672L281.746 4.38074L281.765 4.39276C282.598 4.93773 283.15 5.63698 283.461 6.50552L283.464 6.51554L283.468 6.52556C283.72 7.18774 283.888 8.18251 283.925 9.56597C283.963 10.9504 283.983 12.414 283.983 13.9548V30.9992L257.92 0.518867H244.671V2.98626L245.547 3.09545C246.108 3.16558 246.694 3.2898 247.305 3.46912L247.338 3.47914L247.371 3.48615C247.93 3.61037 248.442 3.84278 248.912 4.1874L248.93 4.20142L248.949 4.21344C249.376 4.49895 249.782 4.93573 250.147 5.56685L250.159 5.58689C250.48 6.11144 250.719 6.85306 250.827 7.862C250.865 8.96483 250.884 9.89082 250.884 10.6429V17.7315C250.884 20.3221 250.864 22.7564 250.826 25.0355C250.787 27.2755 250.729 29.2209 250.653 30.8749L250.652 30.8859C250.575 33.0798 250.459 34.9562 250.307 36.5179C250.16 38.0346 249.836 39.0454 249.425 39.6615L249.42 39.6705L249.414 39.6796C248.985 40.3553 248.414 40.8373 247.682 41.1461C246.828 41.4648 245.981 41.6749 245.14 41.7803L244.264 41.8895V44.3569H260.551V43.1222V41.8875L259.671 41.7793C258.155 41.5943 257.019 41.3067 256.222 40.9475C255.529 40.5823 255.032 40.065 254.705 39.379L254.697 39.363C254.398 38.7659 254.158 37.7421 254.045 36.1934C253.969 34.6316 253.932 32.8734 253.932 30.921V9.03224C255.924 11.2785 257.833 13.4664 259.661 15.5957C262.02 18.3426 264.418 21.1676 266.855 24.0698L266.859 24.0758L266.864 24.0808C269.34 26.9459 271.933 29.9653 274.641 33.1399C277.354 36.3186 280.355 39.8068 283.647 43.6045L283.67 43.6316L283.695 43.6566C284.138 44.0994 284.731 44.5312 285.448 44.5312C285.791 44.5312 286.24 44.4331 286.567 44.0675C286.886 43.7846 287.031 43.3944 287.031 43.0065V39.2298C287.031 37.8356 287.011 36.4405 286.973 35.0463L286.973 27.1442C286.973 24.5602 286.992 22.1506 287.03 19.9154C287.107 17.6323 287.184 15.6618 287.261 14.0009L287.262 13.9979C287.339 12.2187 287.416 10.5547 287.494 9.00798V9.00697C287.572 7.41113 287.746 6.51053 287.924 6.12785L287.933 6.10781L287.942 6.08678C288.344 5.11405 288.883 4.46169 289.528 4.05096ZM292.609 3.09445L292.517 2.41036V2.41294L292.609 3.09445Z" fill="#092278"></path><path fill-rule="evenodd" clip-rule="evenodd" d="M241.422 44.3569H221.824V41.9195L222.668 41.7853L222.826 42.7741V42.771L222.668 41.7853C223.563 41.642 224.373 41.4106 225.103 41.0981L225.11 41.0951L225.118 41.0911L225.487 41.9939L225.497 42.0187L225.118 41.0911C225.827 40.8013 226.41 40.3907 226.882 39.8602C226.929 39.8003 227.011 39.653 227.068 39.341L227.075 39.2989L227.087 39.2568C227.181 38.9112 227.25 38.4774 227.286 37.9425L227.288 37.9094L227.292 37.8773C227.363 37.3424 227.4 36.7864 227.4 36.2084V36.1793L227.401 36.1493C227.439 35.5091 227.458 34.89 227.458 34.291V32.041C227.496 31.1273 227.516 30.1346 227.516 29.0617V29.0276C227.554 27.9156 227.573 26.7846 227.573 25.6336V8.84168C227.573 8.1805 227.537 7.58644 227.466 7.0565L227.462 7.02144L227.459 6.98638C227.424 6.41135 227.353 5.9315 227.255 5.5398L227.251 5.52277C227.156 5.11104 227.035 4.89265 226.943 4.78746L226.931 4.77244C226.509 4.25952 225.99 3.90289 225.355 3.69151L225.327 3.6815L225.3 3.67048C224.624 3.39999 223.822 3.20465 222.886 3.09645L221.999 2.99427V0.518867H241.365V2.97023L240.505 3.09345L240.405 2.39245V2.39495L240.505 3.09345C239.761 3.19964 238.949 3.39699 238.067 3.69151C237.399 3.91391 236.874 4.35169 236.482 5.07698C236.229 5.55871 236.059 6.22247 236.022 7.11156C236.022 8.11777 236.002 9.06936 235.964 9.96527C235.964 10.9405 235.944 11.9157 235.905 12.8909V35.1625C235.905 36.2745 235.925 37.3464 235.963 38.3792C236 39.389 236.17 39.8639 236.295 40.0352L236.304 40.0462L235.501 40.6127L235.468 40.6364L236.304 40.0462C236.614 40.486 237.148 40.8867 238.02 41.1882C238.972 41.5178 239.802 41.7092 240.516 41.7773L241.422 41.8634V44.3569ZM227.827 40.6592L227.646 40.508L227.654 40.5152L227.827 40.6592Z" fill="#092278"></path><path fill-rule="evenodd" clip-rule="evenodd" d="M222.461 11.7639L220.331 12.8298L219.825 12.2007C218.256 10.2482 216.774 8.59524 215.378 7.23582C214.002 5.89652 212.698 4.94454 211.468 4.34415C210.977 4.11274 209.927 3.87183 208.184 3.67849L208.171 3.67649L208.159 3.67549C206.512 3.45109 204.566 3.33588 202.313 3.33588C201.958 3.33588 201.539 3.35391 201.055 3.39098L201.016 3.39398H200.978C200.5 3.39398 200.043 3.41202 199.609 3.44808L199.568 3.45209H199.526C199.089 3.45209 198.674 3.47012 198.281 3.50618L198.235 3.51019H198.11C198.082 3.69458 198.052 3.90546 198.022 4.14332C197.986 4.43083 197.949 4.81952 197.911 5.31641V5.32242C197.873 5.76952 197.836 6.33187 197.797 7.01141C197.758 8.36481 197.72 9.85448 197.682 11.4804V20.5064H197.726C198.324 20.5064 198.984 20.4874 199.705 20.4493H199.708L199.757 20.4469C200.507 20.4101 201.275 20.3724 202.06 20.3346C202.843 20.2598 203.474 20.1681 203.961 20.0637C205.29 19.7674 206.273 19.3937 206.955 18.9717C207.663 18.5329 208.19 18.028 208.565 17.466C208.963 16.868 209.244 16.2218 209.411 15.5236C209.598 14.6979 209.768 13.8127 209.919 12.8668L210.053 12.0233H212.605V32.7362H210.125L209.936 31.9779C209.641 30.7967 209.214 29.5505 208.652 28.2362L208.648 28.2272C208.103 26.9199 207.48 25.9952 206.809 25.3891C206.162 24.8098 205.479 24.3969 204.758 24.1349L204.732 24.1249L204.706 24.1139C204.02 23.8203 203.168 23.625 202.128 23.5539C201.563 23.5159 201.084 23.4978 200.687 23.4978H200.642L200.596 23.4938C200.198 23.4577 199.821 23.4397 199.468 23.4397H197.682V32.644C197.719 33.5213 197.739 34.2927 197.74 34.9572C197.778 36.1839 197.835 37.3507 197.912 38.4596C198.023 39.4633 198.23 40.0852 198.452 40.4309C198.647 40.7345 199.014 41.045 199.676 41.303C200.405 41.532 201.517 41.6979 203.059 41.7733L204.011 41.8204V44.3569H183.427V41.9195L184.27 41.7853C185.165 41.642 185.975 41.4106 186.705 41.0981L186.713 41.0951L186.72 41.0911C187.441 40.7959 188.003 40.3996 188.43 39.9138C188.498 39.8262 188.598 39.6462 188.688 39.3161C188.791 38.8997 188.879 38.4201 188.952 37.8773L188.956 37.8453L188.962 37.8132C189.069 37.2783 189.141 36.7233 189.178 36.1463C189.214 35.5072 189.234 34.8891 189.234 34.291V32.062L189.235 32.041C189.273 31.1273 189.292 30.1346 189.292 29.0617V29.0446L189.293 29.0276C189.331 27.9156 189.35 26.7846 189.35 25.6336V10.9334C189.35 10.2542 189.331 9.55595 189.293 8.83667L189.292 8.80962V8.78358C189.292 8.08233 189.255 7.42416 189.182 6.80906L189.178 6.78001L189.178 6.75096C189.142 6.15289 189.055 5.65401 188.929 5.24328L188.916 5.2012L188.907 5.15812L189.841 4.95847C189.841 4.95832 189.841 4.95862 189.841 4.95847L188.907 5.15812C188.807 4.68929 188.687 4.526 188.656 4.49494L188.644 4.48392L188.633 4.4719C188.153 3.95899 187.699 3.69953 187.276 3.59935L187.249 3.59334L187.223 3.58532C186.626 3.41001 185.825 3.24372 184.803 3.09245L183.949 2.96622V0.518867H217.912L222.461 11.7639Z" fill="#092278"></path><path fill-rule="evenodd" clip-rule="evenodd" d="M182.806 31.5521L179.456 44.3569H142.143V41.9195L142.986 41.7853C144.46 41.5494 146.11 41.0821 147.136 39.925C147.205 39.8435 147.307 39.6676 147.399 39.3351C147.658 38.3093 147.828 37.2045 147.894 36.1493C147.932 35.5092 147.95 34.89 147.95 34.291C147.95 32.5471 148.008 30.8052 148.008 29.0617V29.0276C148.047 27.9156 148.067 26.7846 148.067 25.6336V10.9334C148.067 10.2542 148.048 9.55595 148.009 8.83667L148.008 8.80962C148.008 8.12151 147.941 7.43677 147.893 6.75096C147.861 6.20059 147.736 5.69335 147.624 5.15812C147.57 4.90965 147.526 4.66479 147.35 4.4719C146.947 4.04261 146.502 3.75212 145.939 3.58532C145.343 3.41001 144.541 3.24372 143.52 3.09245L142.666 2.96622V0.518867H176.391L180.95 11.5876L179.537 12.2938L178.814 12.6565L178.309 12.0253C175.214 8.16362 172.381 5.6585 169.822 4.39589C169.315 4.16136 168.242 3.90664 166.474 3.67649C164.75 3.45109 162.629 3.33588 160.101 3.33588C159.319 3.33588 158.497 3.37295 157.632 3.44808L157.612 3.45008L157.591 3.45109C157.205 3.46849 156.879 3.48965 156.61 3.51344C156.56 4.19336 156.508 5.18408 156.456 6.49951C156.418 8.42342 156.398 10.6567 156.398 13.1994V19.3867C156.425 19.8182 156.443 20.1924 156.451 20.5064H156.617C157.175 20.5064 157.816 20.4874 158.538 20.4493H158.541C159.309 20.4115 160.057 20.3727 160.787 20.3339C161.522 20.2596 162.103 20.1698 162.544 20.0683C163.635 19.8139 164.498 19.4776 165.16 19.0809C165.83 18.6782 166.34 18.2083 166.716 17.6764L166.727 17.6614L166.738 17.6453C167.166 17.0863 167.502 16.4352 167.741 15.6849L167.749 15.6588C168.043 14.8133 168.304 13.8666 168.529 12.8147L168.698 12.0233H171.206V32.3295H168.726L168.536 31.5711C168.247 30.4121 167.791 29.2019 167.16 27.9407L167.15 27.9196C166.567 26.6782 165.98 25.8183 165.414 25.2771C164.896 24.8252 164.248 24.4379 163.452 24.1259L163.438 24.1209C162.708 23.8213 161.812 23.626 160.731 23.5539C160.162 23.5158 159.702 23.4978 159.346 23.4978H159.296L159.246 23.4928C158.891 23.4577 158.538 23.4397 158.185 23.4397H156.428C156.409 23.822 156.398 24.2807 156.398 24.8201V33.5648C156.437 34.1044 156.457 34.5801 156.457 34.9882C156.494 36.1949 156.551 37.3434 156.626 38.4358C156.735 39.4535 156.944 40.0825 157.168 40.4309C157.205 40.489 157.32 40.6152 157.634 40.7615C157.944 40.9057 158.39 41.041 158.997 41.1482C160.248 41.3696 161.621 41.4818 163.12 41.4818C166.066 41.4818 169.126 41.4669 171.894 40.3452C172.843 39.9226 173.769 39.3364 174.67 38.5786C177.136 36.5077 178.868 33.6676 180.468 30.914L182.806 31.5521Z" fill="#092278"></path><path fill-rule="evenodd" clip-rule="evenodd" d="M120.548 43.9983L120.529 44.0013C118.593 44.2377 116.714 44.3569 114.89 44.3569H92.6936V41.8855L93.5757 41.7793C94.4477 41.6751 95.2817 41.4487 96.0827 41.1001L96.0967 41.0941C96.9377 40.7435 97.4833 40.3568 97.8127 39.9721L97.8378 39.943L97.8577 39.9231C97.8621 39.9164 97.8755 39.8949 97.8938 39.8509C97.9249 39.7737 97.9619 39.6525 97.9919 39.4722L97.9979 39.4321L98.008 39.3931C98.1131 38.9723 98.2032 38.4864 98.2773 37.9355C98.3514 37.3815 98.4064 36.7864 98.4445 36.1493C98.4815 35.5091 98.5005 34.89 98.5005 34.291V32.062L98.5015 32.041C98.5396 31.1274 98.5586 30.1346 98.5586 29.0617V29.0446L98.5596 29.0276C98.5977 27.9156 98.6167 26.7846 98.6167 25.6336V8.84169C98.6167 8.18052 98.5796 7.58646 98.5095 7.05652L98.5045 7.02145L98.5025 6.98639C98.4665 6.41137 98.3964 5.93151 98.2983 5.54082L98.2943 5.52279C98.1992 5.11105 98.077 4.89266 97.9869 4.78748L97.9779 4.77646C97.5084 4.21346 96.9657 3.84179 96.34 3.63342C95.6031 3.38699 94.7621 3.20666 93.812 3.09647L92.9259 2.99429V0.518881H100.94C104.005 0.479811 107.706 0.460777 112.045 0.460777H115.761C117.069 0.460777 118.377 0.519882 119.685 0.639095C121.002 0.759309 122.319 0.958663 123.633 1.23816C124.98 1.52365 126.303 1.95137 127.602 2.52033C129.301 3.2492 130.898 4.18089 132.392 5.31241C133.907 6.45871 135.215 7.82895 136.317 9.41816C137.467 10.9822 138.362 12.7979 139.008 14.8525C139.707 16.9141 140.048 19.2542 140.048 21.8569C140.048 24.8392 139.691 27.5019 138.957 29.828C138.231 32.1271 137.234 34.1317 135.955 35.8247C134.69 37.4997 133.213 38.8972 131.526 40.0082C129.87 41.0991 128.112 41.9686 126.253 42.6158C124.409 43.2579 122.508 43.7178 120.548 43.9983ZM127.91 34.299L127.909 34.301C125.998 37.5107 123.102 39.6866 119.143 40.8236L119.135 40.8256L119.128 40.8276C118.307 41.0779 117.405 41.2597 116.42 41.37C115.444 41.4442 114.489 41.4818 113.554 41.4818C112.58 41.4818 111.524 41.3925 110.381 41.2099C109.398 41.0134 108.613 40.5968 107.991 39.9741C107.891 39.8738 107.747 39.6688 107.587 39.2956C107.457 38.8634 107.357 38.3912 107.288 37.8778C107.213 37.2713 107.137 36.6657 107.061 36.0592C107.025 35.4297 107.007 34.8594 107.007 34.3491V34.319C106.968 33.0548 106.949 31.4199 106.949 29.4103V22.6122C106.949 18.005 106.968 14.0389 107.007 10.713C107.04 7.81579 107.133 5.48161 107.281 3.70181C107.345 3.69448 107.412 3.6876 107.482 3.68123C107.945 3.64216 108.426 3.60437 108.928 3.5653L108.96 3.5633L108.992 3.55829C109.488 3.48716 109.982 3.4521 110.477 3.4521H110.513L110.548 3.4491C111.071 3.41203 111.549 3.394 111.987 3.394C113.316 3.394 114.414 3.4511 115.289 3.56029L115.309 3.5633L115.33 3.5653C116.228 3.63943 117.041 3.75163 117.771 3.89789L117.797 3.9019C119.661 4.22548 121.381 4.94075 122.966 6.05774C124.574 7.19176 125.965 8.58223 127.14 10.2362L127.146 10.2442C128.319 11.8591 129.241 13.6813 129.908 15.7189C130.572 17.7485 130.903 19.8323 130.903 21.9731C130.903 26.9108 129.887 31.0021 127.91 34.299Z" fill="#092278"></path><path fill-rule="evenodd" clip-rule="evenodd" d="M344.712 1.34492C342.241 1.34492 340.238 3.34922 340.238 5.82163C340.238 8.29404 342.241 10.2983 344.712 10.2983C347.183 10.2983 349.187 8.29404 349.187 5.82163C349.187 3.34922 347.183 1.34492 344.712 1.34492ZM339.425 5.82163C339.425 2.89968 341.792 0.530975 344.712 0.530975C347.633 0.530975 350 2.89968 350 5.82163C350 8.74358 347.633 11.1123 344.712 11.1123C341.792 11.1123 339.425 8.74358 339.425 5.82163Z" fill="#092278"></path><path fill-rule="evenodd" clip-rule="evenodd" d="M343.086 3.78676C343.086 3.56199 343.268 3.37978 343.492 3.37978H345.119C345.551 3.37978 345.964 3.55128 346.27 3.85659C346.575 4.16187 346.746 4.57592 346.746 5.00768C346.746 5.43944 346.575 5.85349 346.27 6.15876C345.964 6.46407 345.551 6.63557 345.119 6.63557H343.899V7.85649C343.899 8.08127 343.717 8.26347 343.492 8.26347C343.268 8.26347 343.086 8.08127 343.086 7.85649V3.78676ZM343.899 5.82163H345.119C345.335 5.82163 345.542 5.73588 345.694 5.58322C345.847 5.43056 345.933 5.22354 345.933 5.00768C345.933 4.79182 345.847 4.58479 345.694 4.43214C345.542 4.27948 345.335 4.19373 345.119 4.19373H343.899V5.82163Z" fill="#092278"></path><path fill-rule="evenodd" clip-rule="evenodd" d="M344.968 5.88972C345.152 5.76112 345.406 5.80625 345.534 5.99057L346.673 7.62355C346.801 7.80787 346.756 8.06158 346.572 8.19022C346.388 8.31882 346.134 8.27369 346.006 8.08937L344.867 6.45639C344.738 6.27203 344.784 6.01836 344.968 5.88972Z" fill="#092278"></path></svg>